<?xml version="1.0" encoding="UTF-8"?>
<svg id="Ebene_1" data-name="Ebene 1" xmlns="http://www.w3.org/2000/svg" viewBox="0 0 649.23 575.87">
  <defs>
    <style>
      .cls-1 {
        fill: #fff;
      }
    </style>
  </defs>
  <path class="cls-1" d="M384.07,574.47c32.54.18,65.11-.22,97.66-.04,20.87.12,42.83,2.5,63.74.86,12.52-.98,15.42-5.84,16.34-17.93l-.05-247.05-4.39-5.18-235.86-196.88-225.37,200.23-.54,248.84c.85,6.74,3.92,14.08,11.12,15.97.93.24,6.19,1.17,6.8,1.17h158.58s1.2-1.2,1.2-1.2v-138.66c0-.64,2.97-6.56,3.64-7.52,4.9-7.02,12.6-8.36,20.63-8.85,18.94-1.15,46.51-1.23,65.41,0,6.83.44,13.84,1.5,17.7,7.8,1.27,2.08,3.39,8.7,3.39,10.96v137.46Z"/>
  <path class="cls-1" d="M283.2,32.12C188.55,117.39,94.66,203.53,0,288.78c18.47,26.63,49.15,16.18,70.82-.07l248.42-222.58c1.09-.19,7.24,5.18,8.63,6.31,73.14,59.54,143.75,122.59,216,183.25,15.06,12.64,32.09,28.76,47.94,39.72,15.66,10.82,33.91,17.14,50.39,3.67,1.75-1.43,8.17-7.76,6.86-9.9L321.09.28c-1.79-.99-3.69.92-5.13,2.05-10.66,8.34-22.42,20.48-32.76,29.79Z"/>
  <path class="cls-1" d="M76.47,65.26v129.49c0,.38,1.56,1.62,2.34,1.14.07-.04-.03-.97.64-1.52,20.79-17.08,41.27-34.56,61.57-52.22v-76.9s-64.55,0-64.55,0Z"/>
</svg>